<svg xmlns="http://www.w3.org/2000/svg" viewBox="435 166 652 652">
  <g transform="translate(0,1024) scale(0.1,-0.1)" fill="#1e293b" stroke="none">
    <path d="M7429 8270 c-548 -36 -1090 -230 -1554 -555 -500 -351 -892 -855
-1092 -1405 -312 -860 -198 -1804 312 -2575 402 -606 1065 -1081 1760 -1260
307 -79 608 -111 935 -102 485 15 882 113 1295 320 895 448 1498 1264 1650
2234 22 139 30 460 16 621 -60 675 -353 1301 -841 1792 -506 510 -1153 830
-1849 915 -154 18 -466 26 -632 15z m551 -275 c622 -66 1201 -349 1640 -802
380 -390 611 -856 697 -1403 25 -161 25 -547 -1 -710 -48 -310 -156 -604 -321
-874 -389 -641 -1038 -1093 -1775 -1236 -58 -11 -115 -23 -127 -25 l-23 -5 0
325 c0 355 9 468 46 614 30 118 112 288 192 400 33 46 134 166 223 268 205
231 289 337 388 483 148 219 241 402 316 620 43 127 95 342 95 398 0 54 2 55
178 41 130 -10 164 -10 177 1 33 27 32 29 -231 410 -55 80 -146 214 -203 297
-109 163 -125 183 -146 183 -7 0 -66 -64 -131 -142 -65 -79 -213 -251 -330
-384 -116 -133 -214 -247 -218 -253 -4 -7 -2 -18 4 -26 10 -12 48 -15 196 -15
l184 0 -4 -22 c-58 -268 -149 -484 -295 -704 -103 -156 -200 -271 -426 -507
-102 -107 -225 -243 -275 -302 -228 -274 -361 -542 -410 -830 -18 -103 -20
-162 -20 -486 0 -289 -3 -369 -12 -369 -28 1 -228 31 -303 46 -666 134 -1280
559 -1660 1149 -71 110 -181 332 -229 463 -157 430 -188 868 -95 1337 127 639
507 1204 1084 1612 362 255 809 419 1250 456 113 10 445 5 565 -8z"/>
    <path d="M7662 7743 c-21 -19 -589 -833 -599 -860 -11 -28 21 -33 189 -26
l168 6 2 -1019 3 -1019 47 -97 c26 -54 53 -98 60 -98 8 0 39 30 70 68 30 37
119 139 197 226 l141 160 0 889 0 890 174 -6 c145 -6 176 -5 186 8 14 17 29
-7 -165 270 -89 127 -215 309 -280 405 -118 175 -152 220 -166 220 -4 0 -16
-8 -27 -17z"/>
    <path d="M6212 6937 c-44 -69 -335 -491 -442 -642 -111 -156 -123 -181 -94
-202 19 -15 45 -14 275 3 l76 6 7 -73 c11 -107 52 -297 93 -424 97 -302 239
-565 460 -854 344 -447 429 -572 534 -778 28 -54 53 -101 58 -106 4 -4 23 38
41 95 49 155 104 289 177 428 l66 125 -60 85 c-33 47 -131 173 -218 280 -344
428 -495 714 -591 1120 -19 80 -34 148 -34 153 0 4 78 7 174 7 178 0 206 3
206 24 0 14 -67 95 -285 346 -89 102 -208 241 -265 310 -57 69 -108 128 -114
132 -22 15 -37 7 -64 -35z"/>
  </g>
</svg>
